<svg xmlns="http://www.w3.org/2000/svg" viewBox="0 0 1100 420" width="100%" height="auto" font-family="ui-sans-serif, system-ui, -apple-system, Helvetica, Arial, sans-serif" font-size="12" role="img" aria-label="Monthly moratorium adoptions, 2018 through April 2026">
<rect width="1100" height="420" fill="white"/>
<text x="60" y="28" font-size="18" font-weight="600" fill="#0f1419">Moratorium adoptions per month, 2018–April 2026</text>
<text x="60" y="48" font-size="13" fill="#4a5460">Each bar = one calendar month. Height = moratoria adopted that month. Color = primary sector.</text>
<text x="60" y="68" font-size="13" fill="#4a5460">191 adoptions across 27 months with at least one adoption.</text>
<g stroke="#e5e7eb" stroke-width="1">
<line x1="60" x2="1076" y1="330.0" y2="330.0"/>
<line x1="60" x2="1076" y1="272.5" y2="272.5"/>
<line x1="60" x2="1076" y1="215.0" y2="215.0"/>
<line x1="60" x2="1076" y1="157.5" y2="157.5"/>
<line x1="60" x2="1076" y1="100.0" y2="100.0"/>
</g>
<g fill="#4a5460" text-anchor="end">
<text x="54" y="334.0">0</text>
<text x="54" y="276.5">10</text>
<text x="54" y="219.0">20</text>
<text x="54" y="161.5">30</text>
<text x="54" y="104.0">40</text>
</g>
<text x="16" y="215.0" fill="#4a5460" text-anchor="middle" transform="rotate(-90 16 215.0)">Moratoria adopted</text>
<g>
<rect x="70.16" y="324.25" width="9.66" height="5.75" fill="#1f6feb"><title>2018-02: 1 data center</title></rect>
<rect x="80.32" y="324.25" width="9.66" height="5.75" fill="#1f6feb"><title>2018-03: 1 data center</title></rect>
<rect x="80.32" y="318.50" width="9.66" height="5.75" fill="#7d3cb5"><title>2018-03: 1 cryptocurrency mining</title></rect>
<rect x="90.48" y="312.75" width="9.66" height="17.25" fill="#7d3cb5"><title>2018-04: 3 cryptocurrency mining</title></rect>
<rect x="100.64" y="324.25" width="9.66" height="5.75" fill="#7d3cb5"><title>2018-05: 1 cryptocurrency mining</title></rect>
<rect x="151.44" y="324.25" width="9.66" height="5.75" fill="#7d3cb5"><title>2018-10: 1 cryptocurrency mining</title></rect>
<rect x="598.48" y="324.25" width="9.66" height="5.75" fill="#1f6feb"><title>2022-06: 1 data center</title></rect>
<rect x="710.24" y="324.25" width="9.66" height="5.75" fill="#1f6feb"><title>2023-05: 1 data center</title></rect>
<rect x="710.24" y="312.75" width="9.66" height="11.50" fill="#7d3cb5"><title>2023-05: 2 cryptocurrency mining</title></rect>
<rect x="720.40" y="318.50" width="9.66" height="11.50" fill="#1f6feb"><title>2023-06: 2 data center</title></rect>
<rect x="761.04" y="324.25" width="9.66" height="5.75" fill="#7d3cb5"><title>2023-10: 1 cryptocurrency mining</title></rect>
<rect x="852.48" y="324.25" width="9.66" height="5.75" fill="#1f6feb"><title>2024-07: 1 data center</title></rect>
<rect x="862.64" y="324.25" width="9.66" height="5.75" fill="#1f6feb"><title>2024-08: 1 data center</title></rect>
<rect x="872.80" y="324.25" width="9.66" height="5.75" fill="#1f6feb"><title>2024-09: 1 data center</title></rect>
<rect x="872.80" y="318.50" width="9.66" height="5.75" fill="#7d3cb5"><title>2024-09: 1 cryptocurrency mining</title></rect>
<rect x="882.96" y="324.25" width="9.66" height="5.75" fill="#1f6feb"><title>2024-10: 1 data center</title></rect>
<rect x="903.28" y="324.25" width="9.66" height="5.75" fill="#1f6feb"><title>2024-12: 1 data center</title></rect>
<rect x="923.60" y="318.50" width="9.66" height="11.50" fill="#1f6feb"><title>2025-02: 2 data center</title></rect>
<rect x="923.60" y="312.75" width="9.66" height="5.75" fill="#7d3cb5"><title>2025-02: 1 cryptocurrency mining</title></rect>
<rect x="933.76" y="324.25" width="9.66" height="5.75" fill="#1f6feb"><title>2025-03: 1 data center</title></rect>
<rect x="954.08" y="318.50" width="9.66" height="11.50" fill="#1f6feb"><title>2025-05: 2 data center</title></rect>
<rect x="964.24" y="289.75" width="9.66" height="40.25" fill="#1f6feb"><title>2025-06: 7 data center</title></rect>
<rect x="984.56" y="318.50" width="9.66" height="11.50" fill="#1f6feb"><title>2025-08: 2 data center</title></rect>
<rect x="994.72" y="255.25" width="9.66" height="74.75" fill="#1f6feb"><title>2025-09: 13 data center</title></rect>
<rect x="994.72" y="249.50" width="9.66" height="5.75" fill="#6a737d"><title>2025-09: 1 general</title></rect>
<rect x="1004.88" y="301.25" width="9.66" height="28.75" fill="#1f6feb"><title>2025-10: 5 data center</title></rect>
<rect x="1015.04" y="295.50" width="9.66" height="34.50" fill="#1f6feb"><title>2025-11: 6 data center</title></rect>
<rect x="1015.04" y="289.75" width="9.66" height="5.75" fill="#d4a017"><title>2025-11: 1 solar</title></rect>
<rect x="1025.20" y="238.00" width="9.66" height="92.00" fill="#1f6feb"><title>2025-12: 16 data center</title></rect>
<rect x="1035.36" y="203.50" width="9.66" height="126.50" fill="#1f6feb"><title>2026-01: 22 data center</title></rect>
<rect x="1035.36" y="192.00" width="9.66" height="11.50" fill="#6a737d"><title>2026-01: 2 general</title></rect>
<rect x="1045.52" y="180.50" width="9.66" height="149.50" fill="#1f6feb"><title>2026-02: 26 data center</title></rect>
<rect x="1045.52" y="174.75" width="9.66" height="5.75" fill="#d4a017"><title>2026-02: 1 solar</title></rect>
<rect x="1045.52" y="157.50" width="9.66" height="17.25" fill="#6a737d"><title>2026-02: 3 general</title></rect>
<rect x="1055.68" y="169.00" width="9.66" height="161.00" fill="#1f6feb"><title>2026-03: 28 data center</title></rect>
<rect x="1055.68" y="163.25" width="9.66" height="5.75" fill="#cb2431"><title>2026-03: 1 battery storage</title></rect>
<rect x="1065.84" y="157.50" width="9.66" height="172.50" fill="#1f6feb"><title>2026-04: 30 data center</title></rect>
</g>
<g fill="#4a5460" text-anchor="middle">
<line x1="65.08" x2="65.08" y1="330.0" y2="335.0" stroke="#4a5460"/>
<text x="65.08" y="350.0">2018</text>
<line x1="187.00" x2="187.00" y1="330.0" y2="335.0" stroke="#4a5460"/>
<text x="187.00" y="350.0">2019</text>
<line x1="308.92" x2="308.92" y1="330.0" y2="335.0" stroke="#4a5460"/>
<text x="308.92" y="350.0">2020</text>
<line x1="430.84" x2="430.84" y1="330.0" y2="335.0" stroke="#4a5460"/>
<text x="430.84" y="350.0">2021</text>
<line x1="552.76" x2="552.76" y1="330.0" y2="335.0" stroke="#4a5460"/>
<text x="552.76" y="350.0">2022</text>
<line x1="674.68" x2="674.68" y1="330.0" y2="335.0" stroke="#4a5460"/>
<text x="674.68" y="350.0">2023</text>
<line x1="796.60" x2="796.60" y1="330.0" y2="335.0" stroke="#4a5460"/>
<text x="796.60" y="350.0">2024</text>
<line x1="918.52" x2="918.52" y1="330.0" y2="335.0" stroke="#4a5460"/>
<text x="918.52" y="350.0">2025</text>
<line x1="1040.44" x2="1040.44" y1="330.0" y2="335.0" stroke="#4a5460"/>
<text x="1040.44" y="350.0">2026</text>
</g>
<line x1="60" x2="1076" y1="330.0" y2="330.0" stroke="#4a5460"/>
<g font-size="12">
<rect x="60" y="382" width="14" height="14" fill="#1f6feb"/>
<text x="80" y="394" fill="#0f1419">Data center (171)</text>
<rect x="223" y="382" width="14" height="14" fill="#7d3cb5"/>
<text x="243" y="394" fill="#0f1419">Cryptocurrency mining (11)</text>
<rect x="449" y="382" width="14" height="14" fill="#cb2431"/>
<text x="469" y="394" fill="#0f1419">Battery storage (1)</text>
<rect x="626" y="382" width="14" height="14" fill="#d4a017"/>
<text x="646" y="394" fill="#0f1419">Solar (2)</text>
<rect x="733" y="382" width="14" height="14" fill="#6a737d"/>
<text x="753" y="394" fill="#0f1419">General zoning (6)</text>
</g>
</svg>