<svg xmlns="http://www.w3.org/2000/svg" viewBox="0 0 1100 420" width="100%" height="auto" font-family="ui-sans-serif, system-ui, -apple-system, Helvetica, Arial, sans-serif" font-size="12" role="img" aria-label="Monthly moratorium adoptions, 2018 through April 2026">
<rect width="1100" height="420" fill="white"/>
<text x="60" y="28" font-size="18" font-weight="600" fill="#0f1419">Moratorium adoptions per month, 2018–April 2026</text>
<text x="60" y="48" font-size="13" fill="#4a5460">Stacked by primary sector. Dashed line shows running total (191 adoptions across 27 active months).</text>
<g stroke="#e5e7eb" stroke-width="1">
<line x1="60" x2="1076" y1="330.0" y2="330.0"/>
<line x1="60" x2="1076" y1="246.7" y2="246.7"/>
<line x1="60" x2="1076" y1="163.3" y2="163.3"/>
<line x1="60" x2="1076" y1="80.0" y2="80.0"/>
</g>
<g fill="#4a5460" text-anchor="end">
<text x="54" y="334.0">0</text>
<text x="54" y="250.7">10</text>
<text x="54" y="167.3">20</text>
<text x="54" y="84.0">30</text>
</g>
<text x="16" y="205.0" fill="#4a5460" text-anchor="middle" transform="rotate(-90 16 205.0)">Adoptions in month</text>
<g fill="#4a5460" text-anchor="start">
<text x="1080" y="334.0">0</text>
<text x="1080" y="271.5">50</text>
<text x="1080" y="209.0">100</text>
<text x="1080" y="146.5">150</text>
<text x="1080" y="84.0">200</text>
</g>
<text x="1120" y="205.0" fill="#4a5460" text-anchor="middle" transform="rotate(90 1120 205.0)">Cumulative total</text>
<g>
<rect x="70.16" y="321.67" width="9.66" height="8.33" fill="#1f6feb"><title>2018-02: 1 data center</title></rect>
<rect x="80.32" y="321.67" width="9.66" height="8.33" fill="#1f6feb"><title>2018-03: 1 data center</title></rect>
<rect x="80.32" y="313.33" width="9.66" height="8.33" fill="#7d3cb5"><title>2018-03: 1 cryptocurrency mining</title></rect>
<rect x="90.48" y="305.00" width="9.66" height="25.00" fill="#7d3cb5"><title>2018-04: 3 cryptocurrency mining</title></rect>
<rect x="100.64" y="321.67" width="9.66" height="8.33" fill="#7d3cb5"><title>2018-05: 1 cryptocurrency mining</title></rect>
<rect x="151.44" y="321.67" width="9.66" height="8.33" fill="#7d3cb5"><title>2018-10: 1 cryptocurrency mining</title></rect>
<rect x="598.48" y="321.67" width="9.66" height="8.33" fill="#1f6feb"><title>2022-06: 1 data center</title></rect>
<rect x="710.24" y="321.67" width="9.66" height="8.33" fill="#1f6feb"><title>2023-05: 1 data center</title></rect>
<rect x="710.24" y="305.00" width="9.66" height="16.67" fill="#7d3cb5"><title>2023-05: 2 cryptocurrency mining</title></rect>
<rect x="720.40" y="313.33" width="9.66" height="16.67" fill="#1f6feb"><title>2023-06: 2 data center</title></rect>
<rect x="761.04" y="321.67" width="9.66" height="8.33" fill="#7d3cb5"><title>2023-10: 1 cryptocurrency mining</title></rect>
<rect x="852.48" y="321.67" width="9.66" height="8.33" fill="#1f6feb"><title>2024-07: 1 data center</title></rect>
<rect x="862.64" y="321.67" width="9.66" height="8.33" fill="#1f6feb"><title>2024-08: 1 data center</title></rect>
<rect x="872.80" y="321.67" width="9.66" height="8.33" fill="#1f6feb"><title>2024-09: 1 data center</title></rect>
<rect x="872.80" y="313.33" width="9.66" height="8.33" fill="#7d3cb5"><title>2024-09: 1 cryptocurrency mining</title></rect>
<rect x="882.96" y="321.67" width="9.66" height="8.33" fill="#1f6feb"><title>2024-10: 1 data center</title></rect>
<rect x="903.28" y="321.67" width="9.66" height="8.33" fill="#1f6feb"><title>2024-12: 1 data center</title></rect>
<rect x="923.60" y="313.33" width="9.66" height="16.67" fill="#1f6feb"><title>2025-02: 2 data center</title></rect>
<rect x="923.60" y="305.00" width="9.66" height="8.33" fill="#7d3cb5"><title>2025-02: 1 cryptocurrency mining</title></rect>
<rect x="933.76" y="321.67" width="9.66" height="8.33" fill="#1f6feb"><title>2025-03: 1 data center</title></rect>
<rect x="954.08" y="313.33" width="9.66" height="16.67" fill="#1f6feb"><title>2025-05: 2 data center</title></rect>
<rect x="964.24" y="271.67" width="9.66" height="58.33" fill="#1f6feb"><title>2025-06: 7 data center</title></rect>
<rect x="984.56" y="313.33" width="9.66" height="16.67" fill="#1f6feb"><title>2025-08: 2 data center</title></rect>
<rect x="994.72" y="221.67" width="9.66" height="108.33" fill="#1f6feb"><title>2025-09: 13 data center</title></rect>
<rect x="994.72" y="213.33" width="9.66" height="8.33" fill="#6a737d"><title>2025-09: 1 general</title></rect>
<rect x="1004.88" y="288.33" width="9.66" height="41.67" fill="#1f6feb"><title>2025-10: 5 data center</title></rect>
<rect x="1015.04" y="280.00" width="9.66" height="50.00" fill="#1f6feb"><title>2025-11: 6 data center</title></rect>
<rect x="1015.04" y="271.67" width="9.66" height="8.33" fill="#d4a017"><title>2025-11: 1 solar</title></rect>
<rect x="1025.20" y="196.67" width="9.66" height="133.33" fill="#1f6feb"><title>2025-12: 16 data center</title></rect>
<rect x="1035.36" y="146.67" width="9.66" height="183.33" fill="#1f6feb"><title>2026-01: 22 data center</title></rect>
<rect x="1035.36" y="130.00" width="9.66" height="16.67" fill="#6a737d"><title>2026-01: 2 general</title></rect>
<rect x="1045.52" y="113.33" width="9.66" height="216.67" fill="#1f6feb"><title>2026-02: 26 data center</title></rect>
<rect x="1045.52" y="105.00" width="9.66" height="8.33" fill="#d4a017"><title>2026-02: 1 solar</title></rect>
<rect x="1045.52" y="80.00" width="9.66" height="25.00" fill="#6a737d"><title>2026-02: 3 general</title></rect>
<rect x="1055.68" y="96.67" width="9.66" height="233.33" fill="#1f6feb"><title>2026-03: 28 data center</title></rect>
<rect x="1055.68" y="88.33" width="9.66" height="8.33" fill="#cb2431"><title>2026-03: 1 battery storage</title></rect>
<rect x="1065.84" y="80.00" width="9.66" height="250.00" fill="#1f6feb"><title>2026-04: 30 data center</title></rect>
</g>
<polyline fill="none" stroke="#0f1419" stroke-width="1.6" stroke-dasharray="3,3" points="65.08,330.00 75.24,328.75 85.40,326.25 95.56,322.50 105.72,321.25 115.88,321.25 126.04,321.25 136.20,321.25 146.36,321.25 156.52,320.00 166.68,320.00 176.84,320.00 187.00,320.00 197.16,320.00 207.32,320.00 217.48,320.00 227.64,320.00 237.80,320.00 247.96,320.00 258.12,320.00 268.28,320.00 278.44,320.00 288.60,320.00 298.76,320.00 308.92,320.00 319.08,320.00 329.24,320.00 339.40,320.00 349.56,320.00 359.72,320.00 369.88,320.00 380.04,320.00 390.20,320.00 400.36,320.00 410.52,320.00 420.68,320.00 430.84,320.00 441.00,320.00 451.16,320.00 461.32,320.00 471.48,320.00 481.64,320.00 491.80,320.00 501.96,320.00 512.12,320.00 522.28,320.00 532.44,320.00 542.60,320.00 552.76,320.00 562.92,320.00 573.08,320.00 583.24,320.00 593.40,320.00 603.56,318.75 613.72,318.75 623.88,318.75 634.04,318.75 644.20,318.75 654.36,318.75 664.52,318.75 674.68,318.75 684.84,318.75 695.00,318.75 705.16,318.75 715.32,315.00 725.48,312.50 735.64,312.50 745.80,312.50 755.96,312.50 766.12,311.25 776.28,311.25 786.44,311.25 796.60,311.25 806.76,311.25 816.92,311.25 827.08,311.25 837.24,311.25 847.40,311.25 857.56,310.00 867.72,308.75 877.88,306.25 888.04,305.00 898.20,305.00 908.36,303.75 918.52,303.75 928.68,300.00 938.84,298.75 949.00,298.75 959.16,296.25 969.32,287.50 979.48,287.50 989.64,285.00 999.80,267.50 1009.96,261.25 1020.12,252.50 1030.28,232.50 1040.44,202.50 1050.60,165.00 1060.76,128.75 1070.92,91.25"/>
<g fill="#4a5460" text-anchor="middle">
<line x1="65.08" x2="65.08" y1="330.0" y2="335.0" stroke="#4a5460"/>
<text x="65.08" y="350.0">2018</text>
<line x1="187.00" x2="187.00" y1="330.0" y2="335.0" stroke="#4a5460"/>
<text x="187.00" y="350.0">2019</text>
<line x1="308.92" x2="308.92" y1="330.0" y2="335.0" stroke="#4a5460"/>
<text x="308.92" y="350.0">2020</text>
<line x1="430.84" x2="430.84" y1="330.0" y2="335.0" stroke="#4a5460"/>
<text x="430.84" y="350.0">2021</text>
<line x1="552.76" x2="552.76" y1="330.0" y2="335.0" stroke="#4a5460"/>
<text x="552.76" y="350.0">2022</text>
<line x1="674.68" x2="674.68" y1="330.0" y2="335.0" stroke="#4a5460"/>
<text x="674.68" y="350.0">2023</text>
<line x1="796.60" x2="796.60" y1="330.0" y2="335.0" stroke="#4a5460"/>
<text x="796.60" y="350.0">2024</text>
<line x1="918.52" x2="918.52" y1="330.0" y2="335.0" stroke="#4a5460"/>
<text x="918.52" y="350.0">2025</text>
<line x1="1040.44" x2="1040.44" y1="330.0" y2="335.0" stroke="#4a5460"/>
<text x="1040.44" y="350.0">2026</text>
</g>
<line x1="60" x2="1076" y1="330.0" y2="330.0" stroke="#4a5460"/>
<g font-size="12">
<rect x="60" y="382" width="14" height="14" fill="#1f6feb"/>
<text x="80" y="394" fill="#0f1419">Data center (171)</text>
<rect x="223" y="382" width="14" height="14" fill="#7d3cb5"/>
<text x="243" y="394" fill="#0f1419">Cryptocurrency mining (11)</text>
<rect x="449" y="382" width="14" height="14" fill="#cb2431"/>
<text x="469" y="394" fill="#0f1419">Battery storage (1)</text>
<rect x="626" y="382" width="14" height="14" fill="#d4a017"/>
<text x="646" y="394" fill="#0f1419">Solar (2)</text>
<rect x="733" y="382" width="14" height="14" fill="#6a737d"/>
<text x="753" y="394" fill="#0f1419">General zoning (6)</text>
<line x1="903" x2="931" y1="389" y2="389" stroke="#0f1419" stroke-width="1.6" stroke-dasharray="3,3"/>
<text x="937" y="394" fill="#0f1419">Cumulative total</text>
</g>
</svg>